<svg width="24" height="24" viewBox="0 0 24 24" fill="none" xmlns="http://www.w3.org/2000/svg">
<g clip-path="url(#clip0_1311_6182)">
<path d="M16.2915 11.9256C15.5754 11.9363 14.9319 11.9454 14.3704 11.9522C13.69 11.9597 13.1284 11.9625 12.701 11.9569C12.619 11.9558 12.5284 11.9581 12.43 11.9649C12.2496 11.978 12.043 12.0066 11.8143 12.0586C11.5473 12.1194 11.2508 12.2123 10.9324 12.3497C10.9194 12.3552 10.9069 12.3612 10.8939 12.3664C10.2249 12.6622 9.69162 13.0808 9.28143 13.4965C9.23555 13.543 9.19123 13.5891 9.14888 13.6351C8.78849 14.0239 8.53595 14.3968 8.38183 14.6501C8.28968 14.8002 8.18497 14.9869 8.07792 15.2085C8.0336 15.3006 7.98851 15.3995 7.94459 15.5047C7.7991 15.849 7.65989 16.2604 7.55832 16.7357C7.55753 16.7389 7.49518 16.9522 7.42734 17.3604C7.42342 17.3838 7.4195 17.4077 7.41597 17.4323C7.38499 17.6265 7.35401 17.8592 7.32773 18.1304C7.30028 18.4103 7.27754 18.7308 7.26538 19.0906C7.26538 19.0934 7.26538 19.0954 7.26538 19.0977C7.2646 19.1168 7.26421 19.1363 7.26342 19.1561C7.25675 19.3336 7.25479 19.4678 7.25479 19.4678C7.25362 19.5326 7.25361 19.527 7.25478 19.6314C7.59126 19.8499 8.08143 20.1675 8.57163 20.3462C9.0226 20.5249 9.51279 20.6242 9.88534 20.7036C9.9222 19.0572 9.9622 18.3107 10.0038 18.13C10.0057 18.1217 10.0814 17.7928 10.0814 17.7928C10.0814 17.7928 10.0881 17.7702 10.2108 17.3548C10.2696 17.1432 10.3889 16.8168 10.6559 16.4034C10.6626 16.3934 10.6704 16.3807 10.6818 16.3637C11.0888 15.7561 11.5477 15.4451 11.6649 15.3681C11.7151 15.3355 11.7657 15.3042 11.8155 15.2752C11.9465 15.2152 12.0775 15.1553 12.2084 15.0957C12.3022 15.0679 12.4543 15.0258 12.6437 14.9849C12.8974 14.9301 13.437 14.8308 14.8272 14.8562C15.026 14.8598 15.3084 14.867 15.6496 14.884H17.0382V11.9141C16.7817 11.918 16.5335 11.9216 16.2931 11.9256H16.2915ZM7.48146 18.1534C7.48146 18.1459 7.48146 18.1383 7.48106 18.1308H7.48146V18.1534Z" fill="#7939CC"/>
<path d="M23.8822 13.7154C23.8089 14.2261 23.6787 14.896 23.4348 15.6565C23.2528 16.2236 22.7595 17.6142 21.6866 19.0772C20.2286 21.0647 18.4647 22.1436 17.4321 22.6698C17.1216 21.6667 16.8106 20.6632 16.5 19.6601C17.1553 19.2714 18.2317 18.5184 19.1709 17.2179C20.1803 15.8197 20.5533 14.4497 20.7046 13.6797C21.7638 13.6916 22.8234 13.7035 23.8826 13.7154H23.8822Z" fill="#7939CC"/>
<path d="M12.1228 10.116C13.4732 10.116 14.5679 9.00747 14.5679 7.64003C14.5679 6.27259 13.4732 5.16406 12.1228 5.16406C10.7724 5.16406 9.67773 6.27259 9.67773 7.64003C9.67773 9.00747 10.7724 10.116 12.1228 10.116Z" fill="#7939CC"/>
<path d="M23.9711 11.9974C22.9492 11.991 21.9272 11.9847 20.9053 11.9783C20.9033 11.5574 20.8723 11.0654 20.7825 10.5225C20.772 10.4578 20.6637 9.81884 20.4276 9.09928C20.3029 8.71846 20.1927 8.46947 20.1484 8.37178C20.0716 8.20261 20.0061 8.07713 19.9547 7.97944C19.7775 7.6415 19.6159 7.38497 19.4959 7.19595C19.2653 6.83259 18.9528 6.38346 18.543 5.89621C19.1477 5.06427 19.7524 4.23233 20.3571 3.40039C20.6371 3.68631 20.9967 4.07905 21.3829 4.57345C21.5194 4.74817 21.9711 5.33708 22.4609 6.17617C22.6355 6.47559 22.81 6.77581 23.0033 7.2019C23.0033 7.2019 23.07 7.34883 23.1621 7.57955C23.1856 7.63832 23.3382 8.02312 23.4731 8.46272C23.7594 9.39672 23.8715 10.2759 23.8868 10.3974C23.9413 10.8366 23.9821 11.3771 23.9711 11.9966V11.9974Z" fill="#7939CC"/>
<path d="M19.0451 2.31111L17.2835 4.73347C16.5286 4.18506 15.6847 3.75102 14.7773 3.45716C13.9024 3.17363 12.9687 3.02074 11.9989 3.02074C11.0291 3.02074 10.095 3.17403 9.22053 3.45716C8.31309 3.75102 7.46918 4.18506 6.71429 4.73347C5.95156 5.28743 5.27941 5.95894 4.72531 6.7206C4.1759 7.4747 3.74179 8.31776 3.44768 9.22396C3.18259 10.0404 3.03161 10.9081 3.01279 11.8083C3.01161 11.8719 3.01082 11.9358 3.01082 12.0001C3.01082 12.9691 3.16376 13.9019 3.44768 14.7759C3.74179 15.6821 4.1759 16.5256 4.7257 17.2797C5.05354 17.73 5.42216 18.149 5.82686 18.5302C5.9245 18.6223 6.0245 18.7129 6.12646 18.8002C6.18332 18.8495 6.24175 18.8983 6.29979 18.9464C6.43508 19.0571 6.57351 19.164 6.71508 19.2668C6.77312 19.3089 6.83155 19.3506 6.89076 19.3911C6.91743 19.4098 6.94449 19.428 6.97154 19.4459C6.99037 19.459 7.00919 19.4717 7.02841 19.4844C7.04252 19.494 7.05664 19.5031 7.07076 19.5122C7.07233 19.5134 7.07389 19.5142 7.07546 19.5154C7.07389 19.5146 7.07233 19.5134 7.07076 19.5126C7.07076 19.5126 7.60604 19.8645 7.90918 20.0368C8.48994 20.3323 8.88955 20.4474 9.74522 20.6515C10.128 20.7429 10.5409 20.8398 11.1056 20.8977C11.7264 20.9613 12.2573 20.9502 12.6558 20.9212C13.0463 20.893 13.3393 20.8473 13.4107 20.8358C13.8322 20.7679 14.3499 20.6492 14.9271 20.4351C15.0557 20.8707 15.1847 21.3064 15.3134 21.742C15.4734 22.2836 15.6338 22.8253 15.7938 23.367C15.4322 23.4698 15.0706 23.5727 14.7091 23.6755C14.2659 23.768 13.9455 23.8185 13.8534 23.8312C13.5169 23.878 13.2114 23.9209 12.7848 23.9483C12.5252 23.965 12.2632 23.9737 11.9993 23.9737C11.4142 23.9737 10.8385 23.932 10.2758 23.851C9.59503 23.7533 8.93308 23.5985 8.29466 23.392C7.72918 23.2089 7.18213 22.9849 6.65704 22.7236C6.05901 22.4258 5.48921 22.0799 4.95315 21.69C3.9363 20.9513 3.04063 20.0563 2.30103 19.0405C1.91045 18.5044 1.5634 17.9345 1.26536 17.3361C1.00654 16.8115 0.784978 16.2647 0.603805 15.7C0.229301 14.5345 0.0273438 13.2915 0.0273438 12.0009C0.0273438 11.9374 0.0277359 11.8743 0.0289124 11.8107C0.0477356 10.588 0.248124 9.40941 0.603805 8.30188C0.784978 7.73719 1.00654 7.19077 1.26536 6.66619C1.5634 6.06775 1.91045 5.4979 2.30103 4.9618C3.04063 3.946 3.9363 3.05092 4.95315 2.3123C5.9598 1.58083 7.08487 1.00224 8.29427 0.610298C9.46052 0.231457 10.7056 0.0273438 11.9989 0.0273438C13.2922 0.0273438 14.5373 0.231457 15.7036 0.609107C16.9133 1.00105 18.0384 1.57924 19.0447 2.31111H19.0451Z" fill="#7939CC"/>
</g>
<defs>
<clipPath id="clip0_1311_6182">
<rect width="24" height="24" fill="white"/>
</clipPath>
</defs>
</svg>
